<svg id="Layer_1" data-name="Layer 1" xmlns="http://www.w3.org/2000/svg" viewBox="0 0 457.55 378.78"><defs><style>.cls-1{fill:#0047ba;}.cls-2{fill:#fff;}.cls-3{fill:none;}</style></defs><title>Mothers Expo logo</title><path class="cls-1" d="M377.94,362.83c0,0.24,1.66-.11-0.69.88a101.34,101.34,0,0,1-10.68,3.54l-5.29,1.43c-0.89.25-1.8,0.51-2.71,0.8l-2.82.83-0.43.56L350.76,372c-1.54.38-3.11,0.67-4.69,1l-4.76,1-4.85.89c-11.85,2.64-23.78,4.65-35.74,6.2,0.33,0.14.5,0.29-.68,0.48-2.49.33-5.46,0.7-8.73,0.91s-6.79.55-10.39,0.69l-3.17.28a2,2,0,0,0-1.14.46c-3.25.22-6.16,0.23-8.85,0.27a423.83,423.83,0,0,1-54,.22c-9.17-.49-18.42-1.52-27.8-2.78s-18.83-3.1-28.4-5.32L151.5,375c-2-.46-4-1-6-1.52-4-1-7.9-2.26-11.75-3.44-2.8-1-5.8-2.07-8.85-3.26l-4.61-1.88-2.33-1-2.31-1L111,360.82l-4.45-2.14c-2.94-1.37-5.69-2.85-8.28-4.16,0.51,0.94-5.59-1.74-11.09-4.57l-3.94-2c-1.2-.65-2.26-1.21-3.09-1.63-1.66-.83-2.37-1-1.31-0.06-1.65-1-3.45-2.32-5.26-3.58l-2.7-1.88-2.52-1.85c-3.24-2.31-5.65-4.24-6-4.33a12.15,12.15,0,0,1-2.11-1.06c-1-.61-2.27-1.52-4-2.82a121.93,121.93,0,0,1-15.68-14.64c-2.77-3-6-7-8.77-10.57-1.33-1.82-2.59-3.47-3.55-4.87l-2.1-3.08-0.2-.26c0.42,0.56,1.13,1.67,1.87,2.76s1.49,2.17,1.89,2.75,0.45,0.66-.21-0.25A186,186,0,0,0,60.1,335.84a214.72,214.72,0,0,0,17.83,13.85c3.07,2.19,6.24,4.21,9.4,6.26s6.41,4,9.71,5.78a265.23,265.23,0,0,0,41.26,18.83,310.39,310.39,0,0,0,44.31,12.11c2.59,0.48,7.06,1.12,13,2l9.89,1.26c3.62,0.39,7.56.75,11.74,1.16a416.33,416.33,0,0,0,58.74.43c10.6-.65,21.3-1.86,31.62-3.35s20.25-3.58,29.35-5.75,17.34-4.72,24.37-7c3.5-1.22,6.7-2.34,9.56-3.39l7.46-2.91,3-1.32a229.81,229.81,0,0,0,28.08-14.28,210.34,210.34,0,0,0,23.91-16.66c5.94-4.86,11.72-10.09,17.2-15.52-2.69,2.37-5.2,4.54-7.48,6.3a165.08,165.08,0,0,0,13.58-12.83c5.71-6.07,6.77-7.54,6-6.79l-2.38,2.31c-1.08,1.07-2.37,2.31-3.58,3.36-1.69,1.56-1.47,1.2-1.47,1.08s-0.06-.07-0.46.25-1.1,1-2.47,2.12c3.82-3.49,5.67-5.3,9.33-9,0.08-.12-0.57.53-1.57,1.53s-2.32,2.36-3.64,3.59-2.54,2.44-3.33,3.12-1.07.9-.44,0.25c3.71-3.33,7.68-7.26,11.23-11-0.33.3-1.26,1.28-2.5,2.52s-2.78,2.75-4.29,4.18-3,2.78-4.05,3.73a8.49,8.49,0,0,1-1.63,1.3c0.51-.48,1.48-1.27,2.59-2.29l3.68-3.35c2.45-2.37,4.73-4.61,5-5,0.14-.14-3.55,3.5-5.41,5.28,5.75-5.5,9.86-10.13,11.45-11.89s0.62-.67-4.5,4.48c0.9-.88,1.87-1.89,2.87-2.95s2.08-2.16,3.1-3.32c2.1-2.27,4.12-4.66,5.86-6.69l0,0-3.23,3.75-3.21,3.56,3.05-3.38,3-3.46-1,1.2c-0.75.85-1.48,1.73-2.25,2.57l-2.36,2.58c1.35-1.49,2.73-3,4-4.5-1,1.15-2.17,2.42-3.48,3.8-4.91,5.25-10,9.83-12.92,12.39a231.54,231.54,0,0,1-37.75,27.2c-6.67,3.92-13.57,7.41-20.54,10.68-3.48,1.65-7,3.14-10.56,4.66s-7.11,2.9-10.74,4.17" transform="translate(-25.7 -50.26)"/><path class="cls-1" d="M385.35,153.76c0.07-.65.08-1.17,0.18-1.66,0.62-3.09,1.18-6.19,1.89-9.25a21.13,21.13,0,0,1,3.74-8c1.62-2.16,1.41-3.63-.5-5.52a5.36,5.36,0,0,0-1-.84c-4.36-2.65-8.6-5.52-13.13-7.86a64.13,64.13,0,0,0-19.49-5.88,112,112,0,0,0-11.8-1.29c-4.24-.23-5.9,1.41-6.34,5.59a10.09,10.09,0,0,1-.13,1.27,48.86,48.86,0,0,1-1.59,6.42c-1.1,2.89-2.63,5.62-3.85,8.48a18.85,18.85,0,0,0-.92,2.8c19.68-2,36.36,5.74,52.91,15.79m16-42.26c-0.77,1-1.53,2-2.31,3-2.66,3.38-5.34,6.75-8,10.15a2.18,2.18,0,0,0-.12,2.84,2.37,2.37,0,0,0,3,.91,14.2,14.2,0,0,0,3.53-2.23,167,167,0,0,0,23.32-26.91c4.26-6,6.45-12.69,5-20.26-1.62-8.27-7.52-12.46-15.54-10.78a5,5,0,0,0-4.47,4.71,21.27,21.27,0,0,0-.27,3.18,19.74,19.74,0,0,1-3.21,10.75,28.41,28.41,0,0,1-7,8.25,25.6,25.6,0,0,1-2.76,1.58l-0.2-.32a9.52,9.52,0,0,1,.67-1.06c1.77-2.13,3.46-4.33,5.35-6.35a22.32,22.32,0,0,0,6.13-15.8c0-5.36-2.33-9-7.3-11a25.07,25.07,0,0,0-9.12-1.68c-7.1-.13-12.67,2.57-16.34,8.79a37.84,37.84,0,0,0-4.93,18.32c0,0.53,0,1.06,0,1.82a4,4,0,0,1-1.38-3.75c0.45-5,1.34-10,3.83-14.47,2.24-4,4.94-7.68,9-10,1.09-.62,2.29-1,3.68-1.64a17.77,17.77,0,0,0-2.11-1.94c-5.53-3.62-11.44-6-18.24-5.54-10,.75-17.77,5-22,14.53a39.32,39.32,0,0,0-2.21,26.11,48.69,48.69,0,0,1,1.82,12.61,32.88,32.88,0,0,0,.6,5.45,4.56,4.56,0,0,0,.78,1.36,3.87,3.87,0,0,0,1.11-1.23,25.15,25.15,0,0,0,1-4.87c0.27-4.58.38-9.17,0.55-13.7a3.58,3.58,0,0,1,.21.65c0.66,4.21,1.21,8.42.61,12.72a23.53,23.53,0,0,0,0,5,1.7,1.7,0,0,0,2,1.68,4.34,4.34,0,0,0,3.87-2.72,25.69,25.69,0,0,0,.92-3.84c0.25-1.23.44-2.47,0.66-3.7a1.59,1.59,0,0,1,.39,1.12c0,2.17,0,4.35-.14,6.52a2.62,2.62,0,0,0,1.75,2.94,21.52,21.52,0,0,0,5.53,1.26c2.67,0.13,3.78-.73,4.41-3.32,0.7-2.88,1.08-5.84,1.57-8.6a0.59,0.59,0,0,1,.11.34c-0.06,2.94,0,5.88-.26,8.8-0.23,2.74.2,3.87,2.78,4.88,2.18,0.85,4.41,1.59,6.66,2.23,2.4,0.68,3.76.15,5.11-2,0.83-1.32,1.38-2.83,2.17-4.19,0.67-1.16,1.5-2.22,2.26-3.33-0.88,2.27-2.11,4.34-2.85,6.57a7.33,7.33,0,0,0-.18,4.57A6.44,6.44,0,0,0,391,122.28a13.34,13.34,0,0,0,1.88-1.91c1.22-1.53,2.37-3.12,3.56-4.67,1.33-1.72,2.63-3.46,4.87-4.2m26.79-22.88c-0.45,1.5-.82,3-1.37,4.5a32.6,32.6,0,0,1-6.27,9.57c-7.4,8.57-14.86,17.1-22.23,25.71-2.3,2.68-4.45,5.5-6.56,8.33-2.41,3.24-3.16,7.12-4,11-0.51,2.37-1,4.75-1.39,7.15a4.83,4.83,0,0,1-3.58,4c-3,1-6.13-.16-9.29-0.07-0.42,0-.83.07-1.25,0.11-2.29-.24-4.58-5.88-6.87-6.12a7.6,7.6,0,0,0-1.08-.33c-9.83-1.48-18.9,2-27.21-3.46a32.52,32.52,0,0,1-4.16-3.15,7.36,7.36,0,0,1-2.34-8.1,39.42,39.42,0,0,1,2.68-6.6c2.51-4.7,4.71-9.44,4.76-14.92,0-1.75.25-3.49,0.27-5.23,0.07-5.59-.14-11.12-1.76-16.56A59.39,59.39,0,0,1,335,86.07c-0.22-1.54-.17-3.12-0.24-4.69l0.61-5.85c0.45-1.81.81-3.65,1.35-5.43,1.44-4.79,3.55-9.23,7.29-12.69,4.21-3.89,9.37-5.79,14.94-6.66,1.76-.27,3.55-0.33,5.32-0.49l4.58,0.48c2.08,0.82,4.22,1.52,6.23,2.49a44.34,44.34,0,0,1,4.9,3,21.59,21.59,0,0,0,11,3.79,47.91,47.91,0,0,1,5.58.62c3.15,0.53,6.06,1.52,7.59,4.69,0.27,0.56.47,1.16,0.72,1.78,0.66-.08,1.25-0.14,1.83-0.23a29.69,29.69,0,0,1,9.78.13,14.07,14.07,0,0,1,11.89,12.85c0.13,1.39.22,2.78,0.32,4.18l-0.48,4.58" transform="translate(-25.7 -50.26)"/><path class="cls-2" d="M414.83,75.63c0.11,0.48.17,0.85,0.28,1.19a15.33,15.33,0,0,1-1,12.47c-0.76,1.45-1.41,3-2.24,4.71,4.67-3.06,7.56-14.76,3-18.38m-60.39-2.12h0.33c1.95-6.4,4.86-12,11.87-14.26a4.2,4.2,0,0,0-2.06-.29A11.2,11.2,0,0,0,361,60.41a16.18,16.18,0,0,0-6.48,10,15.55,15.55,0,0,0-.06,3.05m46.93,38c-2.24.73-3.55,2.48-4.87,4.2-1.2,1.55-2.34,3.14-3.56,4.67a13.43,13.43,0,0,1-1.88,1.91,6.43,6.43,0,0,1-10.19-2.42,7.32,7.32,0,0,1,.18-4.57c0.74-2.23,2-4.29,2.85-6.57-0.76,1.11-1.6,2.17-2.26,3.33-0.79,1.36-1.33,2.87-2.17,4.19-1.35,2.14-2.71,2.67-5.11,2-2.25-.64-4.48-1.38-6.66-2.23-2.58-1-3-2.14-2.78-4.88,0.25-2.92.2-5.87,0.26-8.8a0.61,0.61,0,0,0-.11-0.34c-0.49,2.76-.87,5.72-1.57,8.6-0.63,2.58-1.74,3.45-4.41,3.31a21.48,21.48,0,0,1-5.53-1.26,2.62,2.62,0,0,1-1.75-2.94c0.13-2.17.11-4.35,0.14-6.52a1.59,1.59,0,0,0-.39-1.12c-0.22,1.23-.41,2.48-0.66,3.7a25.44,25.44,0,0,1-.92,3.84,4.35,4.35,0,0,1-3.87,2.72,1.7,1.7,0,0,1-2-1.68,23.51,23.51,0,0,1,0-5c0.59-4.29,0-8.5-.61-12.72a3.44,3.44,0,0,0-.21-0.65c-0.17,4.53-.27,9.12-0.55,13.7a25.16,25.16,0,0,1-1,4.86,3.87,3.87,0,0,1-1.11,1.23,4.49,4.49,0,0,1-.78-1.36,32.93,32.93,0,0,1-.6-5.45,48.73,48.73,0,0,0-1.82-12.61,39.32,39.32,0,0,1,2.21-26.11c4.22-9.52,12-13.78,22-14.53,6.8-.51,12.71,1.92,18.24,5.54A17.75,17.75,0,0,1,382,59.54c-1.39.61-2.6,1-3.68,1.64-4.11,2.34-6.81,6-9,10-2.49,4.5-3.38,9.43-3.83,14.47a4,4,0,0,0,1.38,3.75c0-.76,0-1.29,0-1.82a37.83,37.83,0,0,1,4.93-18.32c3.67-6.22,9.24-8.92,16.34-8.79a25,25,0,0,1,9.12,1.68c5,2,7.31,5.65,7.3,11A22.32,22.32,0,0,1,398.44,89c-1.89,2-3.58,4.22-5.35,6.35a9.82,9.82,0,0,0-.67,1.06l0.2,0.32a25.91,25.91,0,0,0,2.76-1.58,28.45,28.45,0,0,0,7-8.26,19.72,19.72,0,0,0,3.21-10.75,21.52,21.52,0,0,1,.27-3.18,5,5,0,0,1,4.47-4.71c8-1.68,13.92,2.51,15.54,10.78,1.48,7.57-.7,14.24-5,20.26a166.88,166.88,0,0,1-23.32,26.91,14.26,14.26,0,0,1-3.53,2.23,2.37,2.37,0,0,1-3-.91,2.18,2.18,0,0,1,.13-2.84c2.63-3.4,5.31-6.77,8-10.15,0.78-1,1.54-2,2.31-3" transform="translate(-25.7 -50.26)"/><path class="cls-2" d="M385.35,153.76c-2.08,6.22-18.41-.42-28.17-3.31-7.82-2.31-17.56-7.61-24.74-12.48a18.85,18.85,0,0,1,.92-2.8c1.22-2.86,2.74-5.59,3.85-8.48a48.76,48.76,0,0,0,1.59-6.41,10.09,10.09,0,0,0,.13-1.27c0.44-4.18,2.1-5.82,6.34-5.59a112.05,112.05,0,0,1,11.8,1.29,64.08,64.08,0,0,1,19.49,5.88c4.52,2.34,8.77,5.21,13.13,7.86a5.43,5.43,0,0,1,1,.84c1.91,1.89,2.13,3.36.5,5.52a21.15,21.15,0,0,0-3.73,8c-0.71,3.07-1.28,6.17-1.89,9.25-0.1.5-.11,1-0.18,1.66" transform="translate(-25.7 -50.26)"/><path class="cls-1" d="M354.43,73.51a15.71,15.71,0,0,1,.07-3.05,16.17,16.17,0,0,1,6.48-10,11.16,11.16,0,0,1,3.6-1.45,4.19,4.19,0,0,1,2.06.29c-7,2.27-9.93,7.86-11.88,14.26h-0.33" transform="translate(-25.7 -50.26)"/><path class="cls-1" d="M414.83,75.63c4.6,3.62,1.71,15.31-3,18.38,0.83-1.75,1.48-3.26,2.24-4.71a15.34,15.34,0,0,0,1-12.47c-0.12-.35-0.17-0.72-0.28-1.19" transform="translate(-25.7 -50.26)"/><path class="cls-1" d="M124.23,165.9c0-.24-1.66.1,0.69-0.88a99.8,99.8,0,0,1,10.68-3.53l5.29-1.43c1.79-.51,3.61-1.06,5.53-1.63l0.43-.56,4.57-1.12c1.54-.38,3.11-0.67,4.69-1l4.76-1,4.85-.88c11.86-2.63,23.79-4.64,35.75-6.17-0.33-.14-0.5-0.29.68-0.48,2.49-.33,5.46-0.7,8.73-0.91s6.79-.55,10.4-0.69l3.17-.28a2,2,0,0,0,1.14-.46c3.26-.22,6.17-0.23,8.86-0.27a424.74,424.74,0,0,1,54-.21c9.18,0.49,18.42,1.52,27.8,2.77s18.83,3.1,28.4,5.32l6.09,1.35c2,0.46,4,1,6,1.52,4,1,7.9,2.26,11.74,3.44,2.8,1,5.8,2.07,8.85,3.26l4.61,1.88,2.33,1,2.31,1,4.59,2.05,4.45,2.14c2.94,1.37,5.69,2.85,8.28,4.16-0.51-.93,5.59,1.74,11.09,4.57l3.95,2c1.2,0.65,2.26,1.22,3.09,1.63,1.66,0.83,2.37,1,1.31.06,1.65,1,3.45,2.31,5.26,3.58l2.7,1.88,2.53,1.85c3.24,2.31,5.65,4.24,6,4.33a12,12,0,0,1,2.11,1.06c1,0.61,2.27,1.52,4,2.82a122.18,122.18,0,0,1,15.68,14.64c2.77,3,6,7,8.77,10.57,1.33,1.82,2.58,3.48,3.55,4.88l2.1,3.08c0.68,0.89.62,0.82,0.2,0.26s-1.13-1.67-1.87-2.76-1.49-2.18-1.89-2.76-0.45-.66.21,0.25a186,186,0,0,0-30.53-33.27,214.93,214.93,0,0,0-17.84-13.85c-3.07-2.19-6.24-4.21-9.4-6.26s-6.41-4-9.71-5.78a265.06,265.06,0,0,0-41.26-18.83,310.28,310.28,0,0,0-44.31-12.11c-2.59-.48-7.06-1.11-13-2l-9.89-1.26c-3.63-.39-7.56-0.75-11.74-1.16a417,417,0,0,0-58.74-.43c-10.6.64-21.3,1.84-31.62,3.33s-20.25,3.56-29.36,5.73-17.34,4.71-24.38,7c-3.5,1.22-6.71,2.34-9.56,3.39l-7.46,2.91-3,1.32a229.12,229.12,0,0,0-28.09,14.27,209.38,209.38,0,0,0-23.91,16.68c-5.94,4.87-11.71,10.1-17.18,15.55,2.69-2.37,5.19-4.55,7.47-6.31A166.35,166.35,0,0,0,45.57,208c-5.71,6.08-6.76,7.55-6,6.8L42,212.45c1.09-1.07,2.37-2.31,3.58-3.36,1.69-1.56,1.47-1.2,1.47-1.08s0.21,0,2.93-2.37c-3.81,3.49-5.67,5.31-9.32,9-0.09.13,0.57-.52,1.57-1.52s2.32-2.37,3.64-3.6,2.54-2.44,3.32-3.12,1.07-.9.45-0.25c-3.7,3.34-7.67,7.27-11.21,11,0.33-.3,1.26-1.28,2.5-2.52s2.78-2.75,4.29-4.18,3-2.78,4-3.73a8.79,8.79,0,0,1,1.63-1.31c-1.05.91-3.76,3.33-6.27,5.65s-4.72,4.61-5,5c-0.14.14,3.54-3.5,5.41-5.3-5.75,5.51-9.85,10.15-11.44,11.9s-0.63.67,4.5-4.49c-0.9.88-1.86,1.89-2.87,3s-2.08,2.16-3.1,3.32c-2.1,2.27-4.11,4.66-5.86,6.69l0,0,3.22-3.76,3.21-3.56-3,3.38-3,3.46,1-1.2c0.75-.85,1.48-1.72,2.25-2.57l2.36-2.58c-1.35,1.49-2.73,3-4,4.5,1-1.15,2.17-2.42,3.48-3.8,4.91-5.25,10-9.85,12.92-12.4a231.13,231.13,0,0,1,37.72-27.25c6.66-3.93,13.57-7.41,20.54-10.68,3.48-1.65,7-3.15,10.56-4.66s7.11-2.9,10.74-4.17" transform="translate(-25.7 -50.26)"/><path class="cls-1" d="M168.77,336.85A115.89,115.89,0,0,0,184.6,325c5.76-6.08,4.16-11.84-3.52-7.36-11.52,6.56-25.27,20-28.31,36.14-2.88,16.47,35.82-8.48,46.54-18.55,1.76-1.6,3.36-.16,1.76,1.6-14.07,16.63-49.42,41.42-55.82,17.91-4.64-17.11,28.79-48.3,37.1-48.3,6.4,0,11.84,10.72,10.08,16.63-2.24,7.52-14.07,14.4-23.83,16.8-2.08.64-1.92-1.76,0.16-3" transform="translate(-25.7 -50.26)"/><path class="cls-1" d="M267,305.82c-1.6-2.88,3.84-.8,5.44,2.08,1.92,3.84.8,9.76-4,16.31-1,1.6.32,1.28,1.44,0.32,17.27-14.39,31-16.63,35-10.23,14.39,23.51-40.3,44.62-46.38,44.62-2.72,0-3.2.64-2.72-2.24,0.8-3.36,55.66-30.87,44.78-40.62-4.8-4.32-24,6.08-35,17.11a69.31,69.31,0,0,0-5.6,6.4c-22.55,29.27-29.75,48.62-25.43,50.06,1.12,0.48,3,1.76.48,2.56-4.64,1.6-6.08-5.28-5.76-9.44,1.44-18.71,24.31-49.58,36.31-71.17,1.76-3,1.92-4.8,1.44-5.76" transform="translate(-25.7 -50.26)"/><path class="cls-1" d="M343.48,316.86c-12.47,8.32-29.91,28-28.63,37.26,0.8,4.8,5.44,5.12,12.64,1.92,15.51-6.72,27.83-22.07,24.15-33.27-1.12-3.36-3.2-5.12-8.16-5.92M346,305.18c4.64,4.8,4.16,5.28,1.44,8.32a21.24,21.24,0,0,1,8.64,8.15c10.39,17.27-29.91,48.46-43.18,39.51-17.75-12.16,9.92-43,28-55.82,2.4-1.76,3.52-1.76,5.12-.16" transform="translate(-25.7 -50.26)"/><path class="cls-1" d="M206.67,308.86c0.64-1.6,3.2-2.56,9.76-1.6,6.24,0.8,4.32,9.92,3.52,19.67-0.16,2.72.48,1.92,2.24,0.32,17.91-17.43,32.47-34.07,35.18-28,1.44,3.36-.16,1.76-2.08,3-5.12,3.68-24,20.15-33.43,30.71-1,1.12-2.4,2.24-2.4,3.84-3.68,30.23,10.88,17.43,29.91,1,1.76-1.44,3.36.16,2.08,1.76-21.43,22.71-42.06,30.55-42.22,7.84,0-.32-1.12.16-1.44,0.16-5.92,5.28-23,23.67-28.31,29.11-1.6,1.76-2.56-.64-0.64-3,6.08-7,21.75-23.83,29.75-32.15a3,3,0,0,0,.8-2.56c1.44-13.92,2.4-29.43-1.12-28.95-0.16,0-2.72,2.24-1.6-1.12" transform="translate(-25.7 -50.26)"/><path class="cls-1" d="M362.66,216a18.7,18.7,0,0,0,.38,3.94,7.38,7.38,0,0,0,2.41,3.94q2.26,2,6.88,2.56A116,116,0,0,0,386,227q6.88,0,10.74-.31,5.47-.46,7.72-1.8a7.76,7.76,0,0,0,3.09-3.32,12.57,12.57,0,0,0,1-5.31q0-4.74-2-7.07-2.75-3.21-9.67-3.48-10.28-.42-16.63-0.31a41,41,0,0,1-6.5-.27,5.9,5.9,0,0,1-3.17-1.22,4.3,4.3,0,0,1-1.11-3.29,4.59,4.59,0,0,1,1.83-4.13q2.52-1.64,14.26-1.65a68.37,68.37,0,0,1,9.88.54q3.42,0.53,4.6,1.72,1.07,1,1.11,4.36h6q0-4.4-.84-6a8.06,8.06,0,0,0-4.74-4q-4.78-1.65-15.75-1.64-7.07,0-10.89.34-5.7.57-8,2.18-3.63,2.56-3.63,8.22a12,12,0,0,0,1,5.27,7.41,7.41,0,0,0,4.2,3.63,24,24,0,0,0,7.72,1q14.91,0.23,16.55.19a29.85,29.85,0,0,1,5.54.38,5,5,0,0,1,2.71,1.38,5.13,5.13,0,0,1,1.34,3.9,5.69,5.69,0,0,1-.58,2.71q-1,1.91-4.55,2.48a86.55,86.55,0,0,1-11,.42q-7.88,0-10.82-.27-4.63-.42-5.89-2.33-0.76-1.19-.76-4.43v-1H362.7c0,1,0,1.67,0,2.1m-44.42-11.2a14.69,14.69,0,0,1,1-4.74,7.48,7.48,0,0,1,6-4.55,50.69,50.69,0,0,1,9.21-.65,79.41,79.41,0,0,1,8,.35q4.59,0.46,6.84,2.18,2.79,2.1,2.83,7.42H318.24Zm33.72,13q-0.92,2.49-4.7,3.48a44.27,44.27,0,0,1-9.48.69,88.11,88.11,0,0,1-10.4-.42q-4.82-.61-6.65-2.56-2.45-2.52-2.68-9.29h40.41q-0.08-8-1.41-11.39-2.3-6-9.25-7.57-3.93-.92-13.19-0.92a63.37,63.37,0,0,0-11.47.73q-6.27,1.26-8.9,5.85-2.33,4.05-2.33,12.12,0,10.44,4.44,14.56,2.56,2.33,7.68,3.17a99.9,99.9,0,0,0,14.45.76,51.42,51.42,0,0,0,10.2-.76q5.2-1.15,7.57-3.9,2-2.41,2.14-7h-6a9.59,9.59,0,0,1-.42,2.45m-75.72-27.52h-8.91v4.89h8.91v17.66a30.73,30.73,0,0,0,.61,7.07,7.69,7.69,0,0,0,4.17,5.31q3.71,1.8,11.35,1.8,7.22,0,10.66-1.76a8.32,8.32,0,0,0,4.55-6.46,42.41,42.41,0,0,0,.38-6.34v-2.29h-5.69v2.29a32.83,32.83,0,0,1-.27,5,4.56,4.56,0,0,1-3.06,3.86,19.43,19.43,0,0,1-6.11.69,22,22,0,0,1-7.38-.92,4.85,4.85,0,0,1-2.14-1.55,4.91,4.91,0,0,1-1.07-2.43q-0.19-1.18-.27-6.15V195.17h25.38v-4.89H282v-9h-5.73v9ZM219.39,216a18.58,18.58,0,0,0,.38,3.94,7.38,7.38,0,0,0,2.41,3.94q2.26,2,6.88,2.56a115.92,115.92,0,0,0,13.65.57q6.88,0,10.74-.31,5.47-.46,7.72-1.8a7.75,7.75,0,0,0,3.1-3.32,12.57,12.57,0,0,0,1-5.31q0-4.74-2-7.07-2.75-3.21-9.67-3.48-10.28-.42-16.63-0.31a41,41,0,0,1-6.5-.27,5.89,5.89,0,0,1-3.17-1.22,4.3,4.3,0,0,1-1.11-3.29,4.59,4.59,0,0,1,1.83-4.13q2.52-1.64,14.26-1.65a68.3,68.3,0,0,1,9.88.54q3.42,0.53,4.61,1.72,1.07,1,1.11,4.36h6q0-4.4-.84-6a8.05,8.05,0,0,0-4.74-4q-4.78-1.65-15.75-1.64-7.07,0-10.89.34-5.7.57-8,2.18Q220,194.9,220,200.56a12,12,0,0,0,1,5.27,7.42,7.42,0,0,0,4.21,3.63,24,24,0,0,0,7.72,1q14.91,0.23,16.55.19a29.86,29.86,0,0,1,5.54.38,5,5,0,0,1,2.71,1.38,5.12,5.12,0,0,1,1.34,3.9,5.74,5.74,0,0,1-.57,2.71q-1,1.91-4.55,2.48a86.56,86.56,0,0,1-11,.42q-7.87,0-10.82-.27-4.62-.42-5.89-2.33-0.77-1.19-.77-4.43v-1h-6.11q0,1.45,0,2.1m-13.53-4.39a4.58,4.58,0,0,1,1.89,1.72,5.59,5.59,0,0,1,.55,2.71,4.69,4.69,0,0,1-2.1,4.28q-2.56,1.65-12.5,1.64-7.26,0-10.57-.23a14.43,14.43,0,0,1-4.53-.8q-2.68-1.26-2.68-4.78a6.42,6.42,0,0,1,1-3.82q1.18-1.6,4.62-2,2.56-.31,10.28-0.31,11,0,14.07,1.61m-28.44-10.93q0-4.13,3.56-5.08,2.87-.77,11.24-0.77a52.6,52.6,0,0,1,10.24.69A8,8,0,0,1,207,198q1.72,2.1,1.72,6.88v3.9h-0.5a7.64,7.64,0,0,0-3.71-2.87q-3-1-16.21-1a93.28,93.28,0,0,0-9.71.34q-5,.61-7,3.25-1.76,2.22-1.76,7.49,0,4.4,1.3,6.42,2,3.17,7,4a106.33,106.33,0,0,0,14,.57q5.5,0,8-.27a13.69,13.69,0,0,0,5.12-1.34,10,10,0,0,0,3.33-3.1h0.3l-0.12,4.24h5.7V207.44q0-2.71,0-4.62a22,22,0,0,0-.84-5.43,9,9,0,0,0-2.39-3.8,10.07,10.07,0,0,0-4-2.43q-4.4-1.38-15.44-1.37a74.63,74.63,0,0,0-11.41.67,13.33,13.33,0,0,0-6,2.16q-2.94,2.37-2.94,7c0,0.38,0,.91.08,1.57h6v-0.5ZM120,180.49h26.22v46.06h7V180.49H179.3v-6.12H120v6.12Z" transform="translate(-25.7 -50.26)"/><path class="cls-1" d="M403.71,281.32a18.63,18.63,0,0,0,.38,3.94,7.37,7.37,0,0,0,2.41,3.94q2.25,2,6.88,2.56a116.62,116.62,0,0,0,13.64.57q6.88,0,10.74-.31,5.47-.46,7.72-1.8a7.71,7.71,0,0,0,3.1-3.32,12.53,12.53,0,0,0,1-5.32q0-4.74-2-7.07-2.75-3.21-9.67-3.48-10.28-.42-16.63-0.31a41.48,41.48,0,0,1-6.5-.27,5.9,5.9,0,0,1-3.17-1.22,4.3,4.3,0,0,1-1.11-3.29,4.59,4.59,0,0,1,1.83-4.13q2.52-1.65,14.26-1.65a68.64,68.64,0,0,1,9.88.54q3.42,0.54,4.6,1.72,1.07,1,1.11,4.36h6q0-4.39-.84-6a8,8,0,0,0-4.74-4q-4.78-1.64-15.75-1.64-7.07,0-10.89.34-5.7.58-8,2.18-3.63,2.56-3.63,8.22a12,12,0,0,0,1,5.28,7.42,7.42,0,0,0,4.2,3.63,24.1,24.1,0,0,0,7.72,1q14.91,0.23,16.55.19a29.88,29.88,0,0,1,5.54.38,5,5,0,0,1,2.71,1.38,5.13,5.13,0,0,1,1.34,3.9,5.68,5.68,0,0,1-.57,2.71q-1,1.91-4.55,2.48a87.14,87.14,0,0,1-11,.42q-7.87,0-10.82-.27-4.63-.42-5.89-2.33-0.77-1.19-.76-4.43v-1h-6.12c0,1,0,1.67,0,2.1M368.85,255.6h-8.9v4.89h8.9v17.66a30.82,30.82,0,0,0,.61,7.07,7.69,7.69,0,0,0,4.17,5.31q3.7,1.8,11.35,1.8,7.22,0,10.67-1.76a8.32,8.32,0,0,0,4.55-6.46,42.42,42.42,0,0,0,.38-6.35v-2.29h-5.7v2.29a32.66,32.66,0,0,1-.27,5,4.55,4.55,0,0,1-3.06,3.86,19.42,19.42,0,0,1-6.12.69,22.1,22.1,0,0,1-7.38-.92,4.84,4.84,0,0,1-2.14-1.55,4.9,4.9,0,0,1-1.07-2.43,61,61,0,0,1-.27-6.16V260.49H400V255.6H374.58v-9h-5.73v9Zm-56.46,36.27h5.73V275.09q0-6,.73-8.26a7.48,7.48,0,0,1,1.68-2.79,8.13,8.13,0,0,1,2.67-2q4.2-1.87,13-1.87a37.59,37.59,0,0,1,10.24,1,6.42,6.42,0,0,1,4.66,5.12,37.34,37.34,0,0,1,.54,7.49v18h5.73V271.39a29.05,29.05,0,0,0-1.07-9.06,8.93,8.93,0,0,0-5.5-5.62q-4.21-1.57-13.92-1.57-11,0-14.49,2a9.34,9.34,0,0,0-3.82,3.94h-0.42V255.6h-5.73v36.27Zm-45.45-21.75a14.66,14.66,0,0,1,1-4.74,7.47,7.47,0,0,1,6-4.55,50.49,50.49,0,0,1,9.21-.65,79.29,79.29,0,0,1,8,.34q4.59,0.46,6.84,2.18,2.79,2.1,2.83,7.42H266.94Zm33.71,13q-0.92,2.49-4.7,3.48a44.29,44.29,0,0,1-9.48.69,88.77,88.77,0,0,1-10.4-.42q-4.82-.61-6.65-2.56-2.45-2.52-2.68-9.29h40.4q-0.08-7.95-1.41-11.39-2.29-6-9.25-7.57-3.93-.92-13.19-0.92a63.39,63.39,0,0,0-11.47.73q-6.27,1.26-8.91,5.85-2.33,4.06-2.33,12.12,0,10.44,4.43,14.56,2.56,2.33,7.69,3.17a99.8,99.8,0,0,0,14.45.76,51.43,51.43,0,0,0,10.21-.76q5.19-1.15,7.57-3.9,2-2.41,2.14-7h-6a9.67,9.67,0,0,1-.42,2.45m-51.53,8.75h5.73V239.7h-5.73v52.18ZM234.3,276.93a4.6,4.6,0,0,1,1.89,1.72,5.61,5.61,0,0,1,.55,2.71,4.7,4.7,0,0,1-2.1,4.28q-2.56,1.64-12.5,1.64-7.26,0-10.57-.23a14.47,14.47,0,0,1-4.53-.8q-2.68-1.26-2.68-4.78a6.42,6.42,0,0,1,1-3.82q1.19-1.6,4.62-2,2.56-.31,10.28-0.31,11,0,14.07,1.6M205.86,266q0-4.13,3.56-5.08,2.87-.77,11.24-0.77a52.56,52.56,0,0,1,10.24.69,8,8,0,0,1,4.55,2.52q1.72,2.1,1.72,6.88v3.9h-0.5a7.64,7.64,0,0,0-3.71-2.87q-3-1-16.21-1a93,93,0,0,0-9.71.34q-5,.61-7,3.25-1.76,2.22-1.76,7.49,0,4.4,1.3,6.42,2,3.17,7,4a106.92,106.92,0,0,0,14,.57q5.5,0,8-.27a13.68,13.68,0,0,0,5.12-1.34,10,10,0,0,0,3.33-3.09h0.31l-0.12,4.24h5.7V272.76q0-2.71,0-4.62a22,22,0,0,0-.84-5.43,9,9,0,0,0-2.39-3.8,10.11,10.11,0,0,0-4-2.43q-4.4-1.38-15.44-1.38a74.45,74.45,0,0,0-11.41.67,13.34,13.34,0,0,0-6,2.16q-2.94,2.37-2.94,7c0,0.38,0,.91.08,1.57h6V266Zm-57.41-20.18h26.22v46.06h7V245.81h26.11V239.7H148.45v6.12Z" transform="translate(-25.7 -50.26)"/><path class="cls-1" d="M466.52,334.56l-1.71,1.88,2.55,2.31,1.71-1.88,2.78,2.52a20.31,20.31,0,0,0,2.5,2.05,3,3,0,0,0,1.6.42,3.38,3.38,0,0,0,1.66-.45,14.1,14.1,0,0,0,3-2.67c0.58-.64,1.09-1.25,1.53-1.84a6.61,6.61,0,0,0,1-1.77,3.47,3.47,0,0,0,.16-1.74,3.8,3.8,0,0,0-.69-1.66,14.48,14.48,0,0,0-1.78-1.9l-3,3.26,0.56,0.51a2.28,2.28,0,0,1,.62.81,1.81,1.81,0,0,1-.69,1.71,1.78,1.78,0,0,1-1.64.82,5,5,0,0,1-1.55-1.12l-2.78-2.52,5.12-5.64-2.55-2.31L469.76,331l-2.2-2-3.23,3.56ZM461,357.82l3.5-3.3-3.53-3.74c-0.62-.65-1-1.09-1.19-1.31a3,3,0,0,1-.77-1.78q0-1.17,1.82-2.89a9,9,0,0,1,2-1.51,1.65,1.65,0,0,1,1.79.12,11.24,11.24,0,0,1,1.58,1.47l4,4.25,3.5-3.3-4-4.25-1.21-1.27a7.75,7.75,0,0,0-2-1.51,4.2,4.2,0,0,0-1.74-.43,4.46,4.46,0,0,0-1.79.27,12.17,12.17,0,0,0-3.56,2.54,7.87,7.87,0,0,0-2.49,3.61,3.64,3.64,0,0,0,.1,1.81l-0.18.17-1.35-1.43-3.29,3.11Zm-16.2,2.93a2.16,2.16,0,0,1-.55-1.61q0.13-.87,2.32-2.65a10.23,10.23,0,0,1,2.26-1.49,1.24,1.24,0,0,1,1.4.2,5.61,5.61,0,0,1,.61.65Zm8.46-.36a13.41,13.41,0,0,1-2.13,2,12.79,12.79,0,0,1-2,1.4,1.49,1.49,0,0,1-1.63,0,5.42,5.42,0,0,1-1-1l9.78-7.93-0.93-1.18a10,10,0,0,0-2.68-2.48,3.47,3.47,0,0,0-2-.48,5.8,5.8,0,0,0-2.32.81,30.92,30.92,0,0,0-3.66,2.68,22.31,22.31,0,0,0-4.14,4A3.88,3.88,0,0,0,440,362a13.59,13.59,0,0,0,2,3c0.55,0.68,1,1.25,1.5,1.73a5.67,5.67,0,0,0,1.55,1.15,3.71,3.71,0,0,0,3.33,0,21.1,21.1,0,0,0,4.33-2.9,31.37,31.37,0,0,0,3.55-3.22,5.88,5.88,0,0,0,1.53-2.75,4.34,4.34,0,0,0-.91-3.15l-3.73,3a1.22,1.22,0,0,1,0,1.46m-17.47,16.89,5.1-3.56-2.16-14.19-4.48,3.12,2,9.78-8.51-5.22-4.49,3.13ZM413.1,391.35L430.44,381l-2.24-3.74-12.66,7.58-1.5-2.5L426,375.17l-2-3.42L412,378.88l-1.35-2.25,12.57-7.52L421,365.45l-17.25,10.32ZM390.44,402.1l7.75-3.49,0.62-20.18-5.5,2.48L392.91,396l-0.94.42-11.62-9.67-5.54,2.5Zm-30.89,6.24a12.41,12.41,0,0,0,.68,1.59,3.36,3.36,0,0,0,2,1.76,6.76,6.76,0,0,0,3.44-.13,57.08,57.08,0,0,0,5.82-1.83q6.55-2.33,7.85-3.27a3.6,3.6,0,0,0,1.56-2.35,8.46,8.46,0,0,0-.67-3.93,6.51,6.51,0,0,0-1.83-3,3.16,3.16,0,0,0-1.55-.65,6.92,6.92,0,0,0-2.17.14q-1.3.25-5.78,1.71a53.78,53.78,0,0,1-5.63,1.66,1.06,1.06,0,0,1-1.12-.84,1.13,1.13,0,0,1,.27-1.41,22.66,22.66,0,0,1,3.85-1.58q3.34-1.19,4.23-1.42a1.19,1.19,0,0,1,1.43.38,4.56,4.56,0,0,1,.39.82l5-1.8-0.3-.88q-0.91-2.56-2.46-3.12a6.47,6.47,0,0,0-3.26,0,46.11,46.11,0,0,0-5.31,1.65,63.9,63.9,0,0,0-7.12,2.82,4.51,4.51,0,0,0-2.08,2.08q-0.68,1.58.36,4.49a9.49,9.49,0,0,0,1,2.15,3.37,3.37,0,0,0,2.48,1.57,9.75,9.75,0,0,0,3.7-.67q1-.31,4.22-1.3t4.13-1.31a3.12,3.12,0,0,1,1.93-.25,1.32,1.32,0,0,1,.6.82,1.45,1.45,0,0,1,0,1.38,3.63,3.63,0,0,1-1.21.73q-0.52.22-3.84,1.41l-2.88,1a10.26,10.26,0,0,1-1.26.35,1.76,1.76,0,0,1-.71,0,2,2,0,0,1-1.09-1.45l-5,1.8Zm-14.92,2.58,1.65,6.21,5.52-1.46-1.64-6.21,6.6-13.88-7,1.84-3.61,8.48-7.58-5.51-7,1.86Zm-23.17-3.09,4.72-.93-0.7-3.55-4.72.93Zm2.8,14.26,4.72-.93-2.48-12.64-4.72.93Zm-15.49-5.49a2.18,2.18,0,0,1,.33-1.67q0.55-.7,3.33-1.14a10.13,10.13,0,0,1,2.71-.17,1.23,1.23,0,0,1,1.11.87,5.55,5.55,0,0,1,.21.87Zm7.51,3.91a13.41,13.41,0,0,1-2.85.69,12.41,12.41,0,0,1-2.47.19,1.48,1.48,0,0,1-1.41-.82,5.49,5.49,0,0,1-.35-1.37l12.43-2q-0.14-1-.21-1.49a10,10,0,0,0-1.09-3.49,3.44,3.44,0,0,0-1.51-1.41,5.82,5.82,0,0,0-2.42-.46,30.73,30.73,0,0,0-4.51.5,22.48,22.48,0,0,0-5.58,1.4,3.88,3.88,0,0,0-2.27,3.1,13.44,13.44,0,0,0,.25,3.65q0.21,1.29.44,2.25a5.71,5.71,0,0,0,.77,1.76,3.7,3.7,0,0,0,2.89,1.65,20.77,20.77,0,0,0,5.19-.35,31.36,31.36,0,0,0,4.68-1,5.87,5.87,0,0,0,2.7-1.62,4.32,4.32,0,0,0,.78-3.18l-4.74.76a1.22,1.22,0,0,1-.72,1.28m-30,6.94,4.78-.54-0.62-5.47c-0.08-.68-0.12-1.17-0.12-1.49a2.91,2.91,0,0,1,.48-1.83q0.73-.91,3.25-1.19a8.83,8.83,0,0,1,2.38,0,1.68,1.68,0,0,1,1.38,1.24,8.64,8.64,0,0,1,.31,1.65l0.7,6.23,4.78-.54-0.7-6.23c-0.06-.53-0.12-1-0.17-1.39a7.78,7.78,0,0,0-.69-2.33,4.26,4.26,0,0,0-1.11-1.4,4.32,4.32,0,0,0-1.56-.85,11.41,11.41,0,0,0-4.22-.14,7.72,7.72,0,0,0-4.15,1.43,3.21,3.21,0,0,0-1,1.46l-0.21,0L289,408.88l-4.78.54Zm-24.19-3.65a11.87,11.87,0,0,0,.2,1.72,3.35,3.35,0,0,0,1.4,2.25,6.78,6.78,0,0,0,3.34.85,57.77,57.77,0,0,0,6.1-.11q6.94-.39,8.46-0.92a3.59,3.59,0,0,0,2.16-1.81,8.44,8.44,0,0,0,.47-4,6.55,6.55,0,0,0-.9-3.42,3.16,3.16,0,0,0-1.3-1.06,6.89,6.89,0,0,0-2.12-.48q-1.31-.13-6,0a54.12,54.12,0,0,1-5.87,0,1.06,1.06,0,0,1-.83-1.13,1.13,1.13,0,0,1,.66-1.27,22.65,22.65,0,0,1,4.14-.43q3.54-.2,4.46-0.17a1.2,1.2,0,0,1,1.27.77,5.12,5.12,0,0,1,.14.9l5.35-.3c0-.42,0-0.73,0-0.93q-0.15-2.71-1.48-3.68a6.46,6.46,0,0,0-3.14-.89,46.32,46.32,0,0,0-5.56.08,64.33,64.33,0,0,0-7.63.69,4.51,4.51,0,0,0-2.58,1.41q-1.1,1.33-.93,4.4a9.63,9.63,0,0,0,.37,2.35,3.38,3.38,0,0,0,1.93,2.21,9.83,9.83,0,0,0,3.74.4c0.67,0,2.15,0,4.42-.06s3.65,0,4.34-.08a3.12,3.12,0,0,1,1.92.31,1.31,1.31,0,0,1,.34,1,1.45,1.45,0,0,1-.39,1.33,3.69,3.69,0,0,1-1.37.36q-0.55.06-4.08,0.27l-3,.14a9.9,9.9,0,0,1-1.31,0,1.83,1.83,0,0,1-.68-0.21,2,2,0,0,1-.64-1.7l-5.35.3Zm-7.83-7.71,1.52,0v0.51a2,2,0,0,1-.18,1,1.27,1.27,0,0,1-1.17.54h-0.89l0,2.84h1.37a13.91,13.91,0,0,0,3.28-.33,2.25,2.25,0,0,0,1.1-.72,2.51,2.51,0,0,0,.58-1.23,14.83,14.83,0,0,0,.15-2.77l-0.09-5.29-5.81.1Zm-28.14,12.24,5.62,0.16L232,414.95l0.6,0,9.16,13.81,9.61,0.27,0.51-18.14-5.62-.16L246,424.27l-0.57,0-9.12-13.79-9.69-.27Zm-24.59-9.49,4.25-6.44,1.1,0.13,2.7,7.22Zm17,9-7.39-19.1-8.53-1-11.61,16.95,6.27,0.71,1.89-2.88L211,423.92l1.2,3.23Z" transform="translate(-25.7 -50.26)"/><rect class="cls-3" width="457.55" height="378.78"/><path class="cls-1" d="M106.2,252.77c0.18,0.21.31,0.4,0.42,0.55a66.22,66.22,0,0,1-6.56,3.47c-8,3.92-19.06,9.29-25.69,20.15a13,13,0,0,0-1.05,11.92c2.25,5.73,8.22,10.46,12.69,11.72,24.09,7.14,56.58-3.05,64.16-16.16,2.75-4.75,2.08-9.55-1.87-13.58l0.09,0c1.29-.28,2.53-0.59,3.89-0.93,5.55-1.41,13.15-3.35,17.9-3.23,2.56,0.33,3-1.09,3.13-1.72,0.21-1.56-1.43-2.65-2.7-2.83-4.83-1.75-14.78-.42-23.71,1l-2.85.46c-3.92.62-8.71,1.39-10.37,1.3a2.65,2.65,0,0,0-2.79-1.68c-1.06.19-2.06,1.21-1.89,3.06,0.36,2.54,1.21,4.22,2.6,5.22,2.19,1.56,5.22,1.15,9,.44a0.94,0.94,0,0,1,.87.52c1.19,3.25.58,6.16-1.83,9-7.8,9.28-32.43,14.92-50.67,11.6-1.82-.32-6.07-1.4-6.53-4.54-0.32-2.22,1-10.65,31.09-25.71-0.43.05,0,.29,0.7,1.73,5,10.53,5.72,16.59,5,17.49l-0.58.88c-0.72,1.12-1.54,2.38-.61,3.56s2.89,0.65,4.55.07a4.82,4.82,0,0,0,3-3.15c1.74-4.75-.75-13.79-6.19-22.49a2.76,2.76,0,0,1-.16-0.86c11.93-7.14,24.14-15.54,25.26-24,0.41-3.13-.67-6.05-3.21-8.69-2-1.54-3.44-1-4-.76a2.6,2.6,0,0,0-1.45,2.35,2.29,2.29,0,0,0,1.41,2c1.47,0.67,1.46,1.3,1.45,1.54-0.08,4.39-16.14,14.34-24.15,17.65l-1,.32a7.9,7.9,0,0,1-1.3.36c-2.21-3.73-2.67-7.23-1.3-10.61,2.77-6.8,12.6-12.32,20.88-14.26,1.35-.47,2.82-1,3.37-2.54,0.44-1.23.13-2.67-.94-4.43-2.89-4.76-5.19-4.9-7.12-4.66-13.12,3.89-22,11.37-24.74,20.59a18.63,18.63,0,0,0,3.82,17.84" transform="translate(-25.7 -50.26)"/></svg>